<svg t="1698723880469" class="icon" viewBox="0 0 1024 1024" version="1.1" xmlns="http://www.w3.org/2000/svg" p-id="18499" width="200" height="200"><path d="M32 0v1024" opacity=".3" p-id="18500" fill="#eb73a5"></path><path d="M64 0v1024" p-id="18501" fill="#eb73a5"></path><path d="M96 0v1024" opacity=".3" p-id="18502" fill="#eb73a5"></path><path d="M128 0v1024" p-id="18503" fill="#eb73a5"></path><path d="M160 0v1024" opacity=".3" p-id="18504" fill="#eb73a5"></path><path d="M192 0v1024" p-id="18505" fill="#eb73a5"></path><path d="M224 0v1024" opacity=".3" p-id="18506" fill="#eb73a5"></path><path d="M256 0v1024" p-id="18507" fill="#eb73a5"></path><path d="M288 0v1024" opacity=".3" p-id="18508" fill="#eb73a5"></path><path d="M320 0v1024" p-id="18509" fill="#eb73a5"></path><path d="M352 0v1024" opacity=".3" p-id="18510" fill="#eb73a5"></path><path d="M384 0v1024" p-id="18511" fill="#eb73a5"></path><path d="M416 0v1024" opacity=".3" p-id="18512" fill="#eb73a5"></path><path d="M448 0v1024" p-id="18513" fill="#eb73a5"></path><path d="M480 0v1024" opacity=".3" p-id="18514" fill="#eb73a5"></path><path d="M512 0v1024" p-id="18515" fill="#eb73a5"></path><path d="M544 0v1024" opacity=".3" p-id="18516" fill="#eb73a5"></path><path d="M576 0v1024" p-id="18517" fill="#eb73a5"></path><path d="M608 0v1024" opacity=".3" p-id="18518" fill="#eb73a5"></path><path d="M640 0v1024" p-id="18519" fill="#eb73a5"></path><path d="M672 0v1024" opacity=".3" p-id="18520" fill="#eb73a5"></path><path d="M704 0v1024" p-id="18521" fill="#eb73a5"></path><path d="M736 0v1024" opacity=".3" p-id="18522" fill="#eb73a5"></path><path d="M768 0v1024" p-id="18523" fill="#eb73a5"></path><path d="M800 0v1024" opacity=".3" p-id="18524" fill="#eb73a5"></path><path d="M832 0v1024" p-id="18525" fill="#eb73a5"></path><path d="M864 0v1024" opacity=".3" p-id="18526" fill="#eb73a5"></path><path d="M896 0v1024" p-id="18527" fill="#eb73a5"></path><path d="M928 0v1024" opacity=".3" p-id="18528" fill="#eb73a5"></path><path d="M960 0v1024" p-id="18529" fill="#eb73a5"></path><path d="M992 0v1024M0 32h1024" opacity=".3" p-id="18530" fill="#eb73a5"></path><path d="M0 64h1024" p-id="18531" fill="#eb73a5"></path><path d="M0 96h1024" opacity=".3" p-id="18532" fill="#eb73a5"></path><path d="M0 128h1024" p-id="18533" fill="#eb73a5"></path><path d="M0 160h1024" opacity=".3" p-id="18534" fill="#eb73a5"></path><path d="M0 192h1024" p-id="18535" fill="#eb73a5"></path><path d="M0 224h1024" opacity=".3" p-id="18536" fill="#eb73a5"></path><path d="M0 256h1024" p-id="18537" fill="#eb73a5"></path><path d="M0 288h1024" opacity=".3" p-id="18538" fill="#eb73a5"></path><path d="M0 320h1024" p-id="18539" fill="#eb73a5"></path><path d="M0 352h1024" opacity=".3" p-id="18540" fill="#eb73a5"></path><path d="M0 384h1024" p-id="18541" fill="#eb73a5"></path><path d="M0 416h1024" opacity=".3" p-id="18542" fill="#eb73a5"></path><path d="M0 448h1024" p-id="18543" fill="#eb73a5"></path><path d="M0 480h1024" opacity=".3" p-id="18544" fill="#eb73a5"></path><path d="M0 512h1024" p-id="18545" fill="#eb73a5"></path><path d="M0 544h1024" opacity=".3" p-id="18546" fill="#eb73a5"></path><path d="M0 576h1024" p-id="18547" fill="#eb73a5"></path><path d="M0 608h1024" opacity=".3" p-id="18548" fill="#eb73a5"></path><path d="M0 640h1024" p-id="18549" fill="#eb73a5"></path><path d="M0 672h1024" opacity=".3" p-id="18550" fill="#eb73a5"></path><path d="M0 704h1024" p-id="18551" fill="#eb73a5"></path><path d="M0 736h1024" opacity=".3" p-id="18552" fill="#eb73a5"></path><path d="M0 768h1024" p-id="18553" fill="#eb73a5"></path><path d="M0 800h1024" opacity=".3" p-id="18554" fill="#eb73a5"></path><path d="M0 832h1024" p-id="18555" fill="#eb73a5"></path><path d="M0 864h1024" opacity=".3" p-id="18556" fill="#eb73a5"></path><path d="M0 896h1024" p-id="18557" fill="#eb73a5"></path><path d="M0 928h1024" opacity=".3" p-id="18558" fill="#eb73a5"></path><path d="M0 960h1024" p-id="18559" fill="#eb73a5"></path><path d="M0 992h1024" opacity=".3" p-id="18560" fill="#eb73a5"></path><path d="M263.314 475.428c21.942 14.63 58.514 7.314 73.142-21.942L460.8 256v716.8c0 29.256 21.942 51.2 51.2 51.2s51.2-21.942 51.2-51.2V263.314l124.342 190.17c14.63 21.942 43.886 29.258 73.144 14.63 21.942-14.63 29.256-43.886 14.63-65.83L555.888 58.512c-7.314-14.628-21.942-21.942-43.886-21.942-14.63 0-36.572 7.314-43.886 21.942L248.686 402.284c-14.628 14.63-7.314 51.2 14.628 73.144z" p-id="18561" fill="#eb73a5"></path></svg>