<svg t="1698724408807" class="icon" viewBox="0 0 1024 1024" version="1.1" xmlns="http://www.w3.org/2000/svg" p-id="23846" width="200" height="200"><path d="M32 0v1024" opacity=".3" p-id="23847" fill="#71c9ae"></path><path d="M64 0v1024" p-id="23848" fill="#71c9ae"></path><path d="M96 0v1024" opacity=".3" p-id="23849" fill="#71c9ae"></path><path d="M128 0v1024" p-id="23850" fill="#71c9ae"></path><path d="M160 0v1024" opacity=".3" p-id="23851" fill="#71c9ae"></path><path d="M192 0v1024" p-id="23852" fill="#71c9ae"></path><path d="M224 0v1024" opacity=".3" p-id="23853" fill="#71c9ae"></path><path d="M256 0v1024" p-id="23854" fill="#71c9ae"></path><path d="M288 0v1024" opacity=".3" p-id="23855" fill="#71c9ae"></path><path d="M320 0v1024" p-id="23856" fill="#71c9ae"></path><path d="M352 0v1024" opacity=".3" p-id="23857" fill="#71c9ae"></path><path d="M384 0v1024" p-id="23858" fill="#71c9ae"></path><path d="M416 0v1024" opacity=".3" p-id="23859" fill="#71c9ae"></path><path d="M448 0v1024" p-id="23860" fill="#71c9ae"></path><path d="M480 0v1024" opacity=".3" p-id="23861" fill="#71c9ae"></path><path d="M512 0v1024" p-id="23862" fill="#71c9ae"></path><path d="M544 0v1024" opacity=".3" p-id="23863" fill="#71c9ae"></path><path d="M576 0v1024" p-id="23864" fill="#71c9ae"></path><path d="M608 0v1024" opacity=".3" p-id="23865" fill="#71c9ae"></path><path d="M640 0v1024" p-id="23866" fill="#71c9ae"></path><path d="M672 0v1024" opacity=".3" p-id="23867" fill="#71c9ae"></path><path d="M704 0v1024" p-id="23868" fill="#71c9ae"></path><path d="M736 0v1024" opacity=".3" p-id="23869" fill="#71c9ae"></path><path d="M768 0v1024" p-id="23870" fill="#71c9ae"></path><path d="M800 0v1024" opacity=".3" p-id="23871" fill="#71c9ae"></path><path d="M832 0v1024" p-id="23872" fill="#71c9ae"></path><path d="M864 0v1024" opacity=".3" p-id="23873" fill="#71c9ae"></path><path d="M896 0v1024" p-id="23874" fill="#71c9ae"></path><path d="M928 0v1024" opacity=".3" p-id="23875" fill="#71c9ae"></path><path d="M960 0v1024" p-id="23876" fill="#71c9ae"></path><path d="M992 0v1024M0 32h1024" opacity=".3" p-id="23877" fill="#71c9ae"></path><path d="M0 64h1024" p-id="23878" fill="#71c9ae"></path><path d="M0 96h1024" opacity=".3" p-id="23879" fill="#71c9ae"></path><path d="M0 128h1024" p-id="23880" fill="#71c9ae"></path><path d="M0 160h1024" opacity=".3" p-id="23881" fill="#71c9ae"></path><path d="M0 192h1024" p-id="23882" fill="#71c9ae"></path><path d="M0 224h1024" opacity=".3" p-id="23883" fill="#71c9ae"></path><path d="M0 256h1024" p-id="23884" fill="#71c9ae"></path><path d="M0 288h1024" opacity=".3" p-id="23885" fill="#71c9ae"></path><path d="M0 320h1024" p-id="23886" fill="#71c9ae"></path><path d="M0 352h1024" opacity=".3" p-id="23887" fill="#71c9ae"></path><path d="M0 384h1024" p-id="23888" fill="#71c9ae"></path><path d="M0 416h1024" opacity=".3" p-id="23889" fill="#71c9ae"></path><path d="M0 448h1024" p-id="23890" fill="#71c9ae"></path><path d="M0 480h1024" opacity=".3" p-id="23891" fill="#71c9ae"></path><path d="M0 512h1024" p-id="23892" fill="#71c9ae"></path><path d="M0 544h1024" opacity=".3" p-id="23893" fill="#71c9ae"></path><path d="M0 576h1024" p-id="23894" fill="#71c9ae"></path><path d="M0 608h1024" opacity=".3" p-id="23895" fill="#71c9ae"></path><path d="M0 640h1024" p-id="23896" fill="#71c9ae"></path><path d="M0 672h1024" opacity=".3" p-id="23897" fill="#71c9ae"></path><path d="M0 704h1024" p-id="23898" fill="#71c9ae"></path><path d="M0 736h1024" opacity=".3" p-id="23899" fill="#71c9ae"></path><path d="M0 768h1024" p-id="23900" fill="#71c9ae"></path><path d="M0 800h1024" opacity=".3" p-id="23901" fill="#71c9ae"></path><path d="M0 832h1024" p-id="23902" fill="#71c9ae"></path><path d="M0 864h1024" opacity=".3" p-id="23903" fill="#71c9ae"></path><path d="M0 896h1024" p-id="23904" fill="#71c9ae"></path><path d="M0 928h1024" opacity=".3" p-id="23905" fill="#71c9ae"></path><path d="M0 960h1024" p-id="23906" fill="#71c9ae"></path><path d="M0 992h1024" opacity=".3" p-id="23907" fill="#71c9ae"></path><path d="M760.686 563.2c-21.942-14.63-58.514-7.314-73.144 21.942L563.2 782.628v-716.8c0-29.258-21.942-51.2-51.2-51.2s-51.2 21.942-51.2 51.2v709.486l-124.344-190.172c-14.63-21.942-43.886-29.256-73.144-14.63-21.944 14.63-29.258 43.886-14.628 65.828l219.43 343.772c7.314 14.63 21.942 21.942 43.886 21.942 14.63 0 36.572-7.314 43.886-21.942l219.428-343.77c14.63-21.942 7.314-51.2-14.63-73.144z" p-id="23908" fill="#71c9ae"></path></svg>