<svg t="1696924126663" class="icon" viewBox="0 0 1024 1024" version="1.1" xmlns="http://www.w3.org/2000/svg" p-id="37986" width="200" height="200"><path d="M648.533333 68.266667c-133.12 0-238.933333 105.813333-238.933333 238.933333s105.813333 238.933333 238.933333 238.933333 238.933333-105.813333 238.933334-238.933333-105.813333-238.933333-238.933334-238.933333z m-34.133333 68.266666h68.266667v34.133334c44.373333 10.24 71.68 40.96 71.68 78.506666h-61.44c0-20.48-20.48-30.72-44.373334-30.72-23.893333 0-40.96 10.24-40.96 30.72 0 13.653333 10.24 23.893333 40.96 27.306667l34.133334 6.826667c51.2 10.24 75.093333 34.133333 75.093333 75.093333 0 44.373333-27.306667 75.093333-78.506667 85.333333v34.133334h-68.266666v-34.133334c-47.786667-10.24-75.093333-37.546667-78.506667-78.506666h64.853333c0 20.48 20.48 30.72 47.786667 30.72 23.893333 0 44.373333-13.653333 44.373333-30.72 0-13.653333-10.24-23.893333-40.96-27.306667l-34.133333-6.826667c-47.786667-10.24-75.093333-37.546667-75.093333-78.506666 0-40.96 27.306667-71.68 71.68-81.92V136.533333zM273.066667 512c-13.653333 0-27.306667 3.413333-37.546667 6.826667L68.266667 580.266667v273.066666l143.36-61.44c17.066667-6.826667 37.546667-6.826667 54.613333 0l310.613333 126.293334c6.826667 3.413333 13.653333 3.413333 20.48 3.413333 10.24 0 17.066667-3.413333 23.893334-6.826667l307.2-170.666666c17.066667-10.24 27.306667-27.306667 27.306666-44.373334 0-27.306667-23.893333-51.2-51.2-51.2-6.826667 0-13.653333 3.413333-20.48 3.413334L648.533333 750.933333h-51.2c27.306667 0 51.2-23.893333 51.2-51.2 0-20.48-13.653333-40.96-34.133333-47.786666l-296.96-129.706667c-13.653333-6.826667-30.72-10.24-44.373333-10.24z" fill="currentColor"  p-id="37987"></path></svg>