<svg t="1696839608537" class="icon" viewBox="0 0 1024 1024" version="1.1" xmlns="http://www.w3.org/2000/svg" p-id="10140" width="200" height="200"><path d="M512 0a512 512 0 0 0-512 512 512 512 0 0 0 512 512 512 512 0 0 0 512-512 512 512 0 0 0-512-512z m81.472 628.864a39.424 39.424 0 1 1 0-78.912 39.424 39.424 0 1 1 0 78.912zM510.016 332.352c-100.864 0-182.912 78.272-182.912 174.72 0 96.192 82.048 174.656 182.912 174.656a52.48 52.48 0 1 1 0 105.088c-158.848 0-288-125.44-288-279.808 0-154.24 129.152-279.744 288-279.744 158.912 0 288.128 125.44 288.128 279.616a52.48 52.48 0 1 1-105.152 0c0.192-96.256-82.048-174.528-182.976-174.528z m218.048 465.92a76.032 76.032 0 1 1 0-152.064 76.032 76.032 0 0 1 0 152.064z" fill="currentColor" p-id="10141"></path></svg>