<svg t="1696924684972" class="icon" viewBox="0 0 1024 1024" version="1.1" xmlns="http://www.w3.org/2000/svg" p-id="44256" width="200" height="200"><path d="M28.672 840.064c5.44 17.472 99.008 46.336 226.368 47.808 91.264 1.088 197.824-13.76 228.416-45.312 0 0 3.52-11.456-15.296-21.056-27.648-11.584-92.864-34.176-133.184-46.144-3.52-1.088-3.968-1.344-3.968-15.552 0-11.84 4.8-23.808 9.536-33.856 5.184-10.944 11.264-29.376 13.44-45.888 6.208-7.104 14.528-21.184 19.904-47.872 4.672-23.488 2.496-32.128-0.64-40.192-0.384-0.896-0.64-1.664-0.896-2.496-1.28-5.568 0.384-34.24 4.352-56.512 2.88-15.232-0.64-47.744-21.696-74.624-13.248-16.96-38.656-37.824-85.12-40.768L244.48 417.664C198.848 420.544 173.44 441.408 160.128 458.368 139.136 485.248 135.616 517.76 138.432 532.992c4.032 22.272 5.632 50.944 4.416 56.32C142.656 590.336 142.336 591.104 141.952 592 138.88 600.064 136.704 608.704 141.312 632.192c5.376 26.688 13.696 40.768 19.904 47.872 2.176 16.512 8.32 34.944 13.44 45.888 3.776 8 5.504 18.944 5.504 34.368 0 14.4-0.576 14.528-3.776 15.488-41.664 12.352-108.224 36.352-132.928 47.232C43.456 823.04 25.024 828.096 28.672 840.064zM540.672 840.064c5.44 17.472 99.008 46.336 226.368 47.808 91.264 1.088 197.824-13.76 228.416-45.312 0 0 3.52-11.456-15.296-21.056-27.648-11.584-92.864-34.176-133.184-46.144-3.52-1.088-3.968-1.344-3.968-15.552 0-11.84 4.8-23.808 9.536-33.856 5.184-10.944 11.264-29.376 13.44-45.888 6.208-7.104 14.528-21.184 19.904-47.872 4.672-23.488 2.496-32.128-0.64-40.192-0.384-0.896-0.64-1.664-0.896-2.496-1.28-5.568 0.384-34.24 4.352-56.512 2.88-15.232-0.64-47.744-21.696-74.624-13.248-16.96-38.656-37.824-85.12-40.768L756.48 417.664c-45.632 2.88-71.04 23.744-84.352 40.704-20.992 26.88-24.512 59.392-21.696 74.624 4.032 22.272 5.632 50.944 4.416 56.32-0.256 1.024-0.576 1.792-0.96 2.688-3.072 8.064-5.248 16.704-0.64 40.192 5.376 26.688 13.696 40.768 19.904 47.872 2.176 16.512 8.32 34.944 13.44 45.888 3.776 8 5.504 18.944 5.504 34.368 0 14.4-0.576 14.528-3.776 15.488-41.664 12.352-108.224 36.352-132.928 47.232C555.456 823.04 537.024 828.096 540.672 840.064zM758.08 255.68c1.856 5.696 1.472 12.032-1.344 17.6-2.688 5.312-7.424 9.536-13.312 11.584l-176 58.624C555.904 347.328 542.272 340.672 538.432 328.96 534.464 317.056 540.928 303.936 552.96 299.904l123.52-41.216-27.968-13.952c-196.288-115.648-356.736-60.608-420.48 15.104 7.04-13.12 18.304-25.92 42.432-50.176 39.488-39.68 176.128-124.608 398.272-6.08l27.84 13.632-40.768-123.008c-4.032-12.096 2.432-25.088 14.4-29.12 11.648-3.904 25.216 2.816 29.056 14.528L758.08 255.68z" fill="currentColor" p-id="44257"></path></svg>
