<svg t="1696923956030" class="icon" viewBox="0 0 1024 1024" version="1.1" xmlns="http://www.w3.org/2000/svg" p-id="35819" width="200" height="200"><path d="M956.5 828.7H620.4c-13.4 0-20.9 15.6-12.5 26l78.7 98.4c9.4 11.8 28.5 5.1 28.5-10v-50.4h241.4a4 4 0 0 0 4-4v-56a4 4 0 0 0-4-4z m-349-61.5h336.9a16 16 0 0 0 12.5-26.1L878 642.9c-9.5-11.8-28.5-5.1-28.5 10v50.4h-242a3.9 3.9 0 0 0-4 4v55.9a4 4 0 0 0 4 4zM846.7 422c0-127-103-230-230-230s-230 103-230 230a229.8 229.8 0 0 0 94 185.5c-126.6 53.5-216 179-216 324.5v23a4 4 0 0 0 4 4h64a4 4 0 0 0 4-4v-23a276.2 276.2 0 0 1 22-108.5 280.2 280.2 0 0 1 258-171.5c127 0 230-103 230-230zM504.9 533.7A158 158 0 1 1 616.7 580a156.9 156.9 0 0 1-111.8-46.3z m-163.3 1.5a3.9 3.9 0 0 0 2.7-5.2 223.8 223.8 0 0 1-14.9-80.4c0-6.6 0.3-13.2 0.9-19.6a4.1 4.1 0 0 0-1.8-3.7 158.1 158.1 0 0 1 165.8-268.9 3.9 3.9 0 0 0 3.8 0.1 221.9 221.9 0 0 1 74.2-22.7 4 4 0 0 0 2.2-6.9 229.1 229.1 0 0 0-158-62.9c-126.8 0-229.9 103.1-230 229.9a229.8 229.8 0 0 0 94 185.6c-126.6 53.5-216 179-216 324.5v23a4 4 0 0 0 4 4h64a4 4 0 0 0 4-4v-23a276.2 276.2 0 0 1 22-108.5A283.6 283.6 0 0 1 308 547a291.1 291.1 0 0 1 33.6-11.8z" fill="currentColor" p-id="35820"></path></svg>