<svg t="1696923459516" class="icon" viewBox="0 0 1024 1024" version="1.1" xmlns="http://www.w3.org/2000/svg" p-id="20466" width="200" height="200"><path d="M124.439189 0h3.619654c67.84265 5.48119 121.827198 53.260617 116.139171 128.601121a115.053275 115.053275 0 0 1-29.991416 68.67q86.044337 87.543907 173.536535 173.536534c39.247387-40.746958 134.030601-64.791799 201.045902-33.714487 10.962379-35.627733 21.511084-71.72085 32.473464-107.400293-11.789729-10.341867-26.682018-15.512801-37.43756-26.216634a117.897288 117.897288 0 0 1-34.955512-81.183659C547.007891 50.881988 596.390308 7.601273 662.216294 0h8.738878c64.016159 8.428622 108.227642 44.159774 113.760541 106.107559 6.877342 78.856739-55.639247 142.562642-143.596829 127.360097-13.909812 34.386709-22.441852 74.09948-34.955512 109.882341 60.03454 37.954653 108.589608 98.24774 97.368682 199.753169 26.216634 2.895723 57.862748 0.413675 86.147755 1.241024 19.804676-43.125587 53.984548-78.236227 111.123366-78.649901 66.860173-0.517093 106.417815 44.987123 118.621219 102.384487v32.473464c-13.702974 63.96445-59.879412 107.762258-131.08317 101.143463-64.636671-5.998283-112.674645-64.222997-102.384487-138.581023H699.9124c-16.702116 50.72686-45.969601 88.88835-88.629803 113.760541 16.34015 40.281573 34.903802 78.339646 51.192243 118.621219 83.45887-26.940565 160.298945 30.043125 161.074585 109.882341 0.568803 63.033682-41.36747 106.107559-102.384487 118.621219h-32.473464c-51.243953-10.341867-95.300308-45.762763-101.143463-102.384487-6.049992-58.586679 22.441852-94.524668 58.690098-117.380195-17.529465-39.505933-34.800384-79.218704-52.433268-118.621219-74.409736 37.851235-180.982679 5.170934-217.179215-43.69439-50.468313 39.816189-100.678079 79.942635-149.957078 121.103267 37.696107 85.216987-14.892289 174.001919-103.418673 174.777559-66.032823 0.517093-106.107559-43.229006-118.828057-102.487906v-32.473463c11.014089-60.81018 61.275564-108.589608 133.616927-101.143463 35.627733 3.671363 56.001212 23.37262 78.649901 44.935413 47.831137-41.626016 99.643892-79.270414 147.319901-121.103267a118.931475 118.931475 0 0 1-17.219209-26.216634c-36.868757-71.875978-18.305105-171.364743 27.250821-214.748876-57.966167-58.173004-114.794728-117.483614-174.829268-173.536535C125.369957 271.060344 14.711976 218.523658 8.1966 127.360097 2.767119 51.399081 56.54483 6.153411 124.439189 0z" fill="currentColor" p-id="20467"></path></svg>